<svg width="96" height="66" viewBox="0 0 96 66" fill="none" xmlns="http://www.w3.org/2000/svg">
<g filter="url(#filter0_d_2070_506)">
<path d="M11.0356 60.1668H3.83398V1.8335H11.0356V60.1668Z" fill="#E0830F"/>
<path d="M89.6167 24.7053C89.6167 26.3508 89.4135 27.8207 89.0073 29.115C88.601 30.4093 88.0471 31.5556 87.3454 32.554C86.6621 33.534 85.8681 34.3752 84.9633 35.0779C84.0585 35.7804 83.1075 36.3629 82.1103 36.8251C81.1317 37.2689 80.1345 37.5924 79.1189 37.7958C78.1217 37.9992 77.18 38.1009 76.2936 38.1009L91.334 51.1082H80.1991L65.1865 38.1009H60.0068V30.89H76.2936C77.1984 30.816 78.0202 30.6311 78.7588 30.3353C79.5159 30.021 80.1622 29.605 80.6977 29.0873C81.2517 28.5696 81.6764 27.9502 81.9718 27.2291C82.2673 26.4895 82.415 25.6482 82.415 24.7053V20.1568C82.415 19.7501 82.3596 19.445 82.2488 19.2416C82.1565 19.0197 82.0272 18.8626 81.861 18.7701C81.7133 18.6592 81.5471 18.5945 81.3625 18.576C81.1963 18.5575 81.0393 18.5483 80.8916 18.5483H57.1262V51.1082H49.9245V14.9705C49.9245 14.4713 50.0168 13.9998 50.2015 13.5561C50.3862 13.1124 50.6354 12.7241 50.9494 12.3913C51.2817 12.0585 51.6695 11.7996 52.1127 11.6147C52.5559 11.4298 53.036 11.3374 53.553 11.3374H80.8916C82.4981 11.3374 83.8554 11.6332 84.9633 12.2249C86.0713 12.798 86.9668 13.5284 87.6501 14.4159C88.3518 15.2849 88.8503 16.2278 89.1458 17.2447C89.4597 18.2617 89.6167 19.2139 89.6167 20.1014V24.7053Z" fill="#E0830F"/>
<path d="M38.3044 54.2278L18.9851 34.856H13.9163V27.5896H18.9851L38.3837 8.13904L44.6811 1.8335H57.1262L56.9882 8.13904H48.6045L24.9957 31.2228L48.5252 54.2278L57.1262 54.4056V60.1668H44.2358L38.3044 54.2278Z" fill="#E0830F"/>
<path d="M11.0356 60.1668H3.83398V1.8335H11.0356V60.1668Z" stroke="#F4F4F4" stroke-width="1.25"/>
<path d="M89.6167 24.7053C89.6167 26.3508 89.4135 27.8207 89.0073 29.115C88.601 30.4093 88.0471 31.5556 87.3454 32.554C86.6621 33.534 85.8681 34.3752 84.9633 35.0779C84.0585 35.7804 83.1075 36.3629 82.1103 36.8251C81.1317 37.2689 80.1345 37.5924 79.1189 37.7958C78.1217 37.9992 77.18 38.1009 76.2936 38.1009L91.334 51.1082H80.1991L65.1865 38.1009H60.0068V30.89H76.2936C77.1984 30.816 78.0202 30.6311 78.7588 30.3353C79.5159 30.021 80.1622 29.605 80.6977 29.0873C81.2517 28.5696 81.6764 27.9502 81.9718 27.2291C82.2673 26.4895 82.415 25.6482 82.415 24.7053V20.1568C82.415 19.7501 82.3596 19.445 82.2488 19.2416C82.1565 19.0197 82.0272 18.8626 81.861 18.7701C81.7133 18.6592 81.5471 18.5945 81.3625 18.576C81.1963 18.5575 81.0393 18.5483 80.8916 18.5483H57.1262V51.1082H49.9245V14.9705C49.9245 14.4713 50.0168 13.9998 50.2015 13.5561C50.3862 13.1124 50.6354 12.7241 50.9494 12.3913C51.2817 12.0585 51.6695 11.7996 52.1127 11.6147C52.5559 11.4298 53.036 11.3374 53.553 11.3374H80.8916C82.4981 11.3374 83.8554 11.6332 84.9633 12.2249C86.0713 12.798 86.9668 13.5284 87.6501 14.4159C88.3518 15.2849 88.8503 16.2278 89.1458 17.2447C89.4597 18.2617 89.6167 19.2139 89.6167 20.1014V24.7053Z" stroke="#F4F4F4" stroke-width="1.25"/>
<path d="M38.3044 54.2278L18.9851 34.856H13.9163V27.5896H18.9851L38.3837 8.13904L44.6811 1.8335H57.1262L56.9882 8.13904H48.6045L24.9957 31.2228L48.5252 54.2278L57.1262 54.4056V60.1668H44.2358L38.3044 54.2278Z" stroke="#F4F4F4" stroke-width="1.25"/>
</g>
<defs>
<filter id="filter0_d_2070_506" x="0.325094" y="0.348389" width="95.5705" height="65.3513" filterUnits="userSpaceOnUse" color-interpolation-filters="sRGB">
<feFlood flood-opacity="0" result="BackgroundImageFix"/>
<feColorMatrix in="SourceAlpha" type="matrix" values="0 0 0 0 0 0 0 0 0 0 0 0 0 0 0 0 0 0 127 0" result="hardAlpha"/>
<feOffset dy="2.02378"/>
<feGaussianBlur stdDeviation="1.44195"/>
<feComposite in2="hardAlpha" operator="out"/>
<feColorMatrix type="matrix" values="0 0 0 0 0 0 0 0 0 0 0 0 0 0 0 0 0 0 0.4 0"/>
<feBlend mode="normal" in2="BackgroundImageFix" result="effect1_dropShadow_2070_506"/>
<feBlend mode="normal" in="SourceGraphic" in2="effect1_dropShadow_2070_506" result="shape"/>
</filter>
</defs>
</svg>
